<?xml version="1.0" encoding="utf-8"?>
<!-- Generator: Adobe Illustrator 14.0.0, SVG Export Plug-In . SVG Version: 6.00 Build 43363)  -->
<!DOCTYPE svg PUBLIC "-//W3C//DTD SVG 1.1//EN" "http://www.w3.org/Graphics/SVG/1.1/DTD/svg11.dtd">
<svg version="1.1"
	 id="svg2" inkscape:output_extension="org.inkscape.output.svg.inkscape" xmlns:rdf="http://www.w3.org/1999/02/22-rdf-syntax-ns#" inkscape:version="0.46" xmlns:dc="http://purl.org/dc/elements/1.1/" sodipodi:version="0.32" xmlns:svg="http://www.w3.org/2000/svg" xmlns:sodipodi="http://sodipodi.sourceforge.net/DTD/sodipodi-0.dtd" xmlns:inkscape="http://www.inkscape.org/namespaces/inkscape" sodipodi:docname="davit.svg" xmlns:cc="http://creativecommons.org/ns#"
	 xmlns="http://www.w3.org/2000/svg" xmlns:xlink="http://www.w3.org/1999/xlink" x="0px" y="0px" width="1052.363px"
	 height="744.094px" viewBox="0 0 1052.363 744.094" enable-background="new 0 0 1052.363 744.094" xml:space="preserve">
<defs>
	
	
		<inkscape:perspective  inkscape:vp_y="0 : 1000 : 0" inkscape:vp_x="0 : 526.18109 : 1" sodipodi:type="inkscape:persp3d" inkscape:persp3d-origin="372.04724 : 350.78739 : 1" inkscape:vp_z="744.09448 : 526.18109 : 1" id="perspective10">
		</inkscape:perspective>
	
		<inkscape:perspective  inkscape:vp_y="0 : 1000 : 0" inkscape:vp_x="0 : 526.18109 : 1" sodipodi:type="inkscape:persp3d" inkscape:persp3d-origin="372.04724 : 350.78739 : 1" inkscape:vp_z="744.09448 : 526.18109 : 1" id="perspective2447">
		</inkscape:perspective>
	
		<inkscape:perspective  inkscape:vp_y="0 : 1000 : 0" inkscape:vp_x="0 : 526.18109 : 1" sodipodi:type="inkscape:persp3d" inkscape:persp3d-origin="372.04724 : 350.78739 : 1" inkscape:vp_z="744.09448 : 526.18109 : 1" id="perspective5940">
		</inkscape:perspective>
	
		<inkscape:perspective  inkscape:vp_y="0 : 1000 : 0" inkscape:vp_x="0 : 372.04724 : 1" sodipodi:type="inkscape:persp3d" inkscape:persp3d-origin="526.18109 : 248.03149 : 1" inkscape:vp_z="1052.3622 : 372.04724 : 1" id="perspective2449">
		</inkscape:perspective>
	
		<inkscape:perspective  inkscape:vp_y="0 : 1000 : 0" inkscape:vp_x="0 : 526.18109 : 1" sodipodi:type="inkscape:persp3d" inkscape:persp3d-origin="372.04724 : 350.78739 : 1" inkscape:vp_z="744.09448 : 526.18109 : 1" id="perspective2646">
		</inkscape:perspective>
	
		<inkscape:perspective  inkscape:vp_y="0 : 1000 : 0" inkscape:vp_x="0 : 526.18109 : 1" sodipodi:type="inkscape:persp3d" inkscape:persp3d-origin="372.04724 : 350.78739 : 1" inkscape:vp_z="744.09448 : 526.18109 : 1" id="perspective4645">
		</inkscape:perspective>
	
		<inkscape:perspective  inkscape:vp_y="0 : 1000 : 0" inkscape:vp_x="0 : 526.18109 : 1" sodipodi:type="inkscape:persp3d" inkscape:persp3d-origin="372.04724 : 350.78739 : 1" inkscape:vp_z="744.09448 : 526.18109 : 1" id="perspective3724">
		</inkscape:perspective>
	
		<inkscape:perspective  inkscape:vp_y="0 : 1000 : 0" inkscape:vp_x="0 : 526.18109 : 1" sodipodi:type="inkscape:persp3d" inkscape:persp3d-origin="372.04724 : 350.78739 : 1" inkscape:vp_z="744.09448 : 526.18109 : 1" id="perspective2481">
		</inkscape:perspective>
	
		<inkscape:perspective  inkscape:vp_y="0 : 1000 : 0" inkscape:vp_x="0 : 526.18109 : 1" sodipodi:type="inkscape:persp3d" inkscape:persp3d-origin="372.04724 : 350.78739 : 1" inkscape:vp_z="744.09448 : 526.18109 : 1" id="perspective7560">
		</inkscape:perspective>
	
		<inkscape:perspective  inkscape:vp_y="0 : 1000 : 0" inkscape:vp_x="0 : 526.18109 : 1" sodipodi:type="inkscape:persp3d" inkscape:persp3d-origin="372.04724 : 350.78739 : 1" inkscape:vp_z="744.09448 : 526.18109 : 1" id="perspective2857">
		</inkscape:perspective>
	
		<inkscape:perspective  inkscape:vp_y="0 : 1000 : 0" inkscape:vp_x="0 : 526.18109 : 1" sodipodi:type="inkscape:persp3d" inkscape:persp3d-origin="372.04724 : 350.78739 : 1" inkscape:vp_z="744.09448 : 526.18109 : 1" id="perspective2855">
		</inkscape:perspective>
</defs>
<sodipodi:namedview  inkscape:window-y="-4" inkscape:window-x="-4" inkscape:window-height="753" inkscape:window-width="1280" showgrid="false" inkscape:current-layer="layer1" inkscape:document-units="px" inkscape:cy="210.33919" inkscape:cx="478.38189" inkscape:zoom="0.63660096" inkscape:pageshadow="2" inkscape:pageopacity="0.0" objecttolerance="10" guidetolerance="10" gridtolerance="10000" borderopacity="1.0" bordercolor="#666666" pagecolor="#ffffff" id="base">
	</sodipodi:namedview>
<g id="g2876" transform="translate(4.4430145,88.860281)">
	<g id="g3241" transform="translate(0,-1.1939368)">
		<path id="path3279" sodipodi:nodetypes="ccccccccccccc" fill="#FF6600" d="M1042.406,249.159l-43.914,83.982h-83.484l-85.287,160
			h-98.18l85.148-160H659.437l-90.42,160L434.099,249.159h98.198l36.822,68.617l36.619-68.617H1042.406z"/>
		<path id="path3276" sodipodi:nodetypes="ccccccccccccc" fill="#660000" stroke="#FFFFFF" stroke-width="8.7897" d="
			M835.66,321.502l-85.1,160.154h72.104l85.15-160.154h83.381l32.156-61.476H612.605l-43.76,81.802l-43.709-81.802h-71.965
			l115.708,208.462l83.674-146.986H835.66z"/>
	</g>
	<g id="g3224" transform="matrix(0.5493549,0,0,0.5493549,411.52658,183.93501)">
		<path id="path3222" sodipodi:nodetypes="ccccccc" fill="#FF6600" d="M228.053,561.056L-18.532,116.555l-245.283,444.501h178.741
			l67.02-124.912l66.671,124.912H228.053z"/>
		<path id="path3195" sodipodi:nodetypes="ccccccc" fill="#660000" stroke="#FFFFFF" stroke-width="16" d="M193.347,541.367
			L-18.494,161.892L-229.11,541.367h130.988l79.585-148.893l79.634,148.893H193.347z"/>
	</g>
	<g id="g3267" transform="matrix(0.5493549,0,0,0.5493549,404.36792,152.06723)">
		<path id="path3259" sodipodi:nodetypes="ccccc" fill="#FF6600" d="M505.151,349.719h181.996L543.708,619.065H365.004
			L505.151,349.719z"/>
		<path id="path3249" sodipodi:nodetypes="cccccc" fill="#660000" stroke="#FFFFFF" stroke-width="16" d="M651.331,372.139
			L531.186,597.684H400.027l0,0l119.302-225.545H651.331z"/>
	</g>
	<g id="g3213" transform="matrix(0.5493549,0,0,0.5493549,-559.83802,182.11893)">
		
			<path id="text2422" sodipodi:nodetypes="cccccssscccccssscc" inkscape:transform-center-y="-222.2509" inkscape:transform-center-x="-195.67807" fill="#FF6600" d="
			M1293.601,119.86h162.485c55.825,0,138.707,2.562,156.645,7.687c17.937,5.125,30.04,13.546,36.309,25.259
			c6.268,11.715,8.242,24.757,5.92,39.123c-2.323,14.371-162.349,306.951-170.672,320.404
			c-8.322,13.453-18.444,23.977-30.363,31.575c-11.921,7.594-25.257,12.902-40.008,15.924c-14.752,3.018-35.947,4.529-63.585,4.529
			h-293.787L1293.601,119.86z M1389.345,271.913l-75.371,140.399c16.656,0,44.57,3.107,50.156-4.021
			c5.585-7.132,55.625-108.81,58.207-113.905c2.58-5.095,8.171-14.861,5.461-18.495c-2.71-3.63-3.74-3.978-12.452-3.978H1389.345z"
			/>
		
			<path id="path3211" sodipodi:nodetypes="csssssscccccssszzcc" inkscape:transform-center-y="-222.2509" inkscape:transform-center-x="-195.67807" fill="#660000" stroke="#FFFFFF" stroke-width="16" d="
			M1305.601,139.861c0,0,234.473,0.992,253.129,0.992c50.796,0,66.558,12.417,72.827,24.13c6.269,11.715,2.766,28.667-6.597,46.949
			c-6.635,12.952-144.348,266.95-152.671,280.403c-8.322,13.453-18.443,23.977-30.363,31.571
			c-11.921,7.598-25.257,12.906-40.008,15.924c-14.752,3.022-35.947,4.533-63.585,4.533h-247.788L1305.601,139.861z
			 M1377.345,251.911l-97.371,180.4c8.328,0,31.565,0.846,53.37,0.768c21.806-0.082,34.642,0.796,44.004-7.918
			c9.17-8.536,19.495-31.653,35.152-63.043c15.658-31.39,30.243-60.973,32.796-67.217c2.553-6.243,8.829-16.792,4.42-28.841
			c-4.66-12.732-19.658-14.15-28.37-14.15H1377.345z"/>
	</g>
</g>
<radialGradient id="path3221_1_" cx="734.8071" cy="-583.6368" r="208.0896" gradientTransform="matrix(-0.4505 0.0682 0.0195 0.1292 1245.9407 357.2826)" gradientUnits="userSpaceOnUse">
	<stop  offset="0" style="stop-color:#69686B"/>
	<stop  offset="1" style="stop-color:#69686B;stop-opacity:0"/>
</radialGradient>
<path id="path3221" sodipodi:ry="36.029411" sodipodi:rx="208.08824" sodipodi:cy="754.56805" sodipodi:cx="347.79413" sodipodi:type="arc" fill="url(#path3221_1_)" d="
	M972.529,338.835c0.832,5.501-28.244,14.462-64.943,20.014s-67.125,5.594-67.957,0.093c-0.832-5.502,28.244-14.462,64.943-20.014
	C941.271,333.375,971.697,333.334,972.529,338.835z"/>
<path id="path3277" sodipodi:ry="6.5340905" sodipodi:rx="13.352272" sodipodi:cy="589.57806" sodipodi:cx="194.03409" sodipodi:type="arc" d="
	M862.167,318.268c0.736,1.074-0.369,3.188-2.471,4.721c-2.102,1.533-4.402,1.904-5.139,0.83c0-0.002-0.002-0.003-0.002-0.004
	c-0.736-1.075,0.369-3.188,2.471-4.722c2.102-1.532,4.402-1.904,5.139-0.829C862.165,318.265,862.167,318.266,862.167,318.268z"/>
<path id="path2869" sodipodi:ry="6.5340905" sodipodi:rx="13.352272" sodipodi:cy="589.57806" sodipodi:cx="194.03409" sodipodi:type="arc" d="
	M855.08,314.654c0.74,1.441-0.625,3.932-3.051,5.562c-2.426,1.63-4.992,1.783-5.732,0.342c0-0.002-0.002-0.004-0.002-0.006
	c-0.74-1.441,0.625-3.932,3.051-5.562s4.992-1.784,5.732-0.342C855.078,314.65,855.08,314.652,855.08,314.654z"/>
<path id="path3285" sodipodi:nodetypes="csssssssssssssssscccsscccssczcc" fill="#1DA1D1" d="M868.226,347.902
	c-7.324,0.548-12.547,0.254-16.1-0.905c-3.273-1.068-6.822-3.662-9.363-6.843c-3.619-4.531-5.201-9.31-4.713-14.246
	c0.562-5.704,3.102-10.004,8.215-13.91c9.312-7.114,29.311-12.346,50.859-13.305c6.41-0.286,9.637-0.037,15.498,1.194
	c5.74,1.206,8.182,1.38,13.586,0.972c3.859-0.292,5.777-0.19,7.703,0.407c4.158,1.29,13.527,7.453,23.939,15.751
	c5.775,4.603,8.055,6.938,9.262,9.496c0.572,1.215,0.363,1.616-1.58,3.034c-1.359,0.989-2.203,1.396-4.809,2.316
	c-7.896,2.788-7.678,2.767-23.805,2.372c-5.676-0.139-7.643,0.038-13.291,1.199c-6.928,1.423-13.256,2.987-27.502,6.797
	c-12.127,3.242-13.031,3.454-19.029,4.441C873.634,347.244,869.642,347.797,868.226,347.902L868.226,347.902z M859.738,322.478
	c1.793-1.369,2.279-3.326,0.977-3.924c-1.982-0.909-5.729,1.695-5.416,3.767C855.558,324.039,857.599,324.111,859.738,322.478
	L859.738,322.478z M852.083,319.693c0.572-0.38,1.344-1.177,1.713-1.77c0.816-1.308,0.77-2.262-0.145-2.892
	c-1.436-0.991-3.971-0.104-5.533,1.936c-0.877,0.963-1.1,2.184-0.451,3.157C848.316,321.1,850.535,320.721,852.083,319.693
	L852.083,319.693z"/>
<path id="path2487" sodipodi:nodetypes="ccssscssssssssssssccsssssssssssscssscc" stroke="#000000" stroke-width="1.0275" d="
	M886.322,297.607c-2.967,0.428-6.521,0.669-9.338,1.169c-8.457,1.497-18.275,3.616-26.322,8.045
	c-8.047,4.43-14.402,10.206-14.318,19.83c0.057,6.489,2.15,18.449,15.129,22.193c10.137,2.924,25.76,1.688,33.914,0.151
	c13.137-2.468,30.465-10.445,43.473-12.385c3.521-0.525,8.207-0.521,12.68-0.541c4.473-0.021,8.721-0.06,11.518-0.749
	c2.652-0.654,6.301-1.334,9.363-2.424c1.531-0.544,2.916-1.189,3.975-2.017c1.059-0.828,1.969-1.552,2.055-2.827
	c0.055-0.83-0.211-2.671-0.818-3.666c-0.607-0.994-1.303-1.652-2.396-2.841c-2.189-2.377-5.686-4.91-9.125-7.646
	c-6.875-5.473-15.275-11.016-21.352-13.935c-3.771-1.812-6.789-1.585-10.098-1.278c-3.309,0.307-6.957,0.693-12.336-0.7
	C904.425,295.941,895.222,296.322,886.322,297.607z M886.806,299.288c9.053-0.71,17.705-1.598,25.365,0.386
	c5.531,1.434,9.326,1.4,12.627,1.094c3.301-0.306,6.68-0.743,10.232,0.964c5.951,2.859,12.945,7.765,19.766,13.193
	c3.41,2.714,6.631,5.14,8.762,7.452c1.064,1.157,1.643,2.028,2.193,2.933c0.553,0.905,0.791,1.652,0.762,2.106
	c-0.062,0.924-0.531,1.219-1.447,1.936c-0.916,0.716-1.834,1.511-3.307,2.035c-2.945,1.048-6.248,2.272-8.951,2.938
	c-2.564,0.632-6.629,0.316-11.098,0.337c-4.467,0.021-9.492-0.536-13.146,0.009c-13.238,1.975-41.266,10.278-44.447,10.879
	c-2.85,0.615-22.904,4.873-32.121,1.013c-8.158-3.416-13.158-12.229-13.211-18.367c-0.08-9.195,4.703-14.877,12.568-19.206
	c7.863-4.33,17.887-6.843,26.297-8.331C880.462,300.161,883.855,299.711,886.806,299.288z"/>
<path id="path3265" sodipodi:nodetypes="ccccc" stroke="#000000" stroke-width="1.233" stroke-linecap="round" stroke-linejoin="round" d="
	M847.634,294.922l1.727,12.962l1.223-0.166l-1.465-11.23L847.634,294.922z"/>
<path id="path3267" sodipodi:nodetypes="ccccc" stroke="#000000" stroke-width="1.0275" stroke-linecap="round" stroke-linejoin="round" d="
	M859.148,290.106l-0.855,1.218l1.473,12.058l1.197,0.265L859.148,290.106z"/>
<radialGradient id="rect2950_1_" cx="339.4526" cy="-192.6636" r="117.1845" gradientTransform="matrix(-6.3172 0 1.2284 0.3031 2774.3435 630.1603)" gradientUnits="userSpaceOnUse">
	<stop  offset="0" style="stop-color:#69686B"/>
	<stop  offset="1" style="stop-color:#69686B;stop-opacity:0"/>
</radialGradient>
<polygon id="rect2950" fill="url(#rect2950_1_)" points="24.54,581.014 837.046,581.014 943.478,607.28 130.973,607.28 "/>
</svg>
